<svg width="57" height="71" viewBox="0 0 57 71" fill="none" xmlns="http://www.w3.org/2000/svg">
<path d="M45.792 0.916626C48.5436 0.916626 51.1825 2.0097 53.1282 3.95539C55.0739 5.90108 56.167 8.54001 56.167 11.2916V59.7083C56.167 62.4599 55.0739 65.0988 53.1282 67.0445C51.1825 68.9902 48.5436 70.0833 45.792 70.0833H11.2086C8.457 70.0833 5.81808 68.9902 3.87239 67.0445C1.9267 65.0988 0.833618 62.4599 0.833618 59.7083V11.2916C0.833618 8.54001 1.9267 5.90108 3.87239 3.95539C5.81808 2.0097 8.457 0.916626 11.2086 0.916626H45.792ZM49.2503 28.5833H7.75028V59.7083C7.75028 60.6255 8.11464 61.5051 8.76321 62.1537C9.41177 62.8023 10.2914 63.1666 11.2086 63.1666H45.792C46.7092 63.1666 47.5888 62.8023 48.2374 62.1537C48.8859 61.5051 49.2503 60.6255 49.2503 59.7083V28.5833ZM28.5003 32.0416C32.1691 32.0416 35.6877 33.4991 38.2819 36.0933C40.8762 38.6876 42.3336 42.2061 42.3336 45.875C42.3336 49.5438 40.8762 53.0624 38.2819 55.6566C35.6877 58.2509 32.1691 59.7083 28.5003 59.7083C24.8315 59.7083 21.3129 58.2509 18.7186 55.6566C16.1244 53.0624 14.667 49.5438 14.667 45.875C14.667 42.2061 16.1244 38.6876 18.7186 36.0933C21.3129 33.4991 24.8315 32.0416 28.5003 32.0416ZM28.5003 38.9583C26.6659 38.9583 24.9066 39.687 23.6095 40.9841C22.3123 42.2813 21.5836 44.0405 21.5836 45.875C21.5836 47.7094 22.3123 49.4687 23.6095 50.7658C24.9066 52.0629 26.6659 52.7916 28.5003 52.7916C30.3347 52.7916 32.094 52.0629 33.3911 50.7658C34.6882 49.4687 35.417 47.7094 35.417 45.875C35.417 44.0405 34.6882 42.2813 33.3911 40.9841C32.094 39.687 30.3347 38.9583 28.5003 38.9583ZM45.792 7.83329H11.2086C10.3616 7.8334 9.54399 8.14439 8.911 8.70727C8.278 9.27014 7.8736 10.0458 7.77449 10.887L7.75028 11.2916V21.6666H49.2503V11.2916C49.2503 10.3744 48.8859 9.49478 48.2374 8.84622C47.5888 8.19765 46.7092 7.83329 45.792 7.83329ZM42.3336 11.2916C43.2151 11.2926 44.0629 11.6301 44.7038 12.2352C45.3448 12.8403 45.7305 13.6673 45.7822 14.5473C45.8338 15.4272 45.5475 16.2937 44.9818 16.9696C44.416 17.6456 43.6135 18.08 42.7382 18.1841L42.3336 18.2083H38.8753C37.9938 18.2073 37.146 17.8698 36.5051 17.2647C35.8641 16.6596 35.4784 15.8326 35.4267 14.9526C35.3751 14.0727 35.6614 13.2062 36.2271 12.5303C36.7929 11.8543 37.5954 11.4199 38.4707 11.3158L38.8753 11.2916H42.3336ZM28.5003 11.2916C29.4175 11.2916 30.2971 11.656 30.9457 12.3045C31.5943 12.9531 31.9586 13.8328 31.9586 14.75C31.9586 15.6672 31.5943 16.5468 30.9457 17.1954C30.2971 17.8439 29.4175 18.2083 28.5003 18.2083C27.5831 18.2083 26.7034 17.8439 26.0549 17.1954C25.4063 16.5468 25.042 15.6672 25.042 14.75C25.042 13.8328 25.4063 12.9531 26.0549 12.3045C26.7034 11.656 27.5831 11.2916 28.5003 11.2916Z" fill="#19456B"/>
</svg>
